<svg width="1278" height="398" viewBox="0 0 1278 398" fill="none" xmlns="http://www.w3.org/2000/svg">
<path d="M1003.45 272.769C1086.54 272.769 1153.9 211.931 1153.9 136.884C1153.9 61.8375 1086.54 1 1003.45 1C920.359 1 853 61.8375 853 136.884C853 211.931 920.359 272.769 1003.45 272.769Z" stroke="black" stroke-miterlimit="10"/>
<path d="M1126.45 396.769C1209.54 396.769 1276.9 335.931 1276.9 260.884C1276.9 185.837 1209.54 125 1126.45 125C1043.36 125 976 185.837 976 260.884C976 335.931 1043.36 396.769 1126.45 396.769Z" stroke="black" stroke-miterlimit="10"/>
<path d="M151.45 396.769C234.541 396.769 301.9 335.931 301.9 260.884C301.9 185.837 234.541 125 151.45 125C68.3588 125 1 185.837 1 260.884C1 335.931 68.3588 396.769 151.45 396.769Z" stroke="black" stroke-miterlimit="10"/>
<path d="M313.45 272.769C396.541 272.769 463.9 211.931 463.9 136.884C463.9 61.8375 396.541 1 313.45 1C230.359 1 163 61.8375 163 136.884C163 211.931 230.359 272.769 313.45 272.769Z" stroke="black" stroke-miterlimit="10"/>
</svg>
