<svg width="81" height="80" viewBox="0 0 81 80" fill="none" xmlns="http://www.w3.org/2000/svg">
<path d="M5.6939 31.3758C4.59347 26.45 2.32592 22.0483 4.03075 16.0375C5.47465 18.4633 6.57758 19.9967 7.35955 21.68C11.5804 30.78 15.6711 39.9408 19.9245 49.0233C21.0691 51.4667 22.6305 53.715 24.608 57.0917C26.0719 53.0408 27.2315 50.2233 28.106 47.3183C29.8583 41.4933 31.3956 35.6042 33.148 29.7792C33.7107 27.91 34.4251 25.9925 35.5064 24.3925C37.5297 21.3967 41.1469 21.2233 43.4511 24.05C44.8842 25.8067 45.9288 27.925 46.9142 29.9917C49.3851 35.16 51.7235 40.3908 54.648 46.755C55.6492 44.0867 56.2553 42.5142 56.833 40.93C60.2052 31.6633 63.4965 22.3667 66.9878 13.1475C67.909 10.715 69.3288 8.43835 70.7376 6.22918C71.8014 4.56168 73.5279 3.79251 75.4645 4.68251C77.3994 5.57335 77.7921 7.34251 77.3694 9.27918C77.126 10.3992 76.7158 11.4842 76.3357 12.5717C72.2099 24.36 68.0949 36.1542 63.9333 47.9292C63.0038 50.5583 62.146 53.2667 60.8088 55.6925C57.9035 60.965 52.573 61.1642 49.5961 55.9067C47.0159 51.3492 45.1877 46.3692 43.0293 41.5733C42.2523 39.8475 41.4862 38.1192 40.7151 36.39C40.3133 36.3942 39.9114 36.4008 39.5096 36.405C39.0603 38.0325 38.6393 39.665 38.1574 41.2817C36.5159 46.7917 35.052 52.3633 33.133 57.7758C31.8625 61.3567 30.0234 64.9242 25.5292 65.3342C20.7281 65.7692 18.1921 62.355 16.6198 58.7358C12.7658 49.8525 9.38701 40.7633 5.68973 31.3825L5.6939 31.3758Z" fill="#221311"/>
<path d="M6.30833 74.0466L4.49762 67.7233H5.95819L7.00527 72.1166H7.05862L8.21574 67.7233H9.46623L10.6167 72.1266H10.6734L11.7204 67.7233H13.181L11.3736 74.0466H10.0698L8.86266 69.9099H8.81264L7.61217 74.0466H6.30833Z" fill="black"/>
<path d="M18.3484 74.1366C17.8949 74.1366 17.5189 74.0191 17.2213 73.7833C16.9228 73.5458 16.7744 73.1925 16.7744 72.7233C16.7744 72.3683 16.8578 72.09 17.0245 71.89C17.1912 71.6883 17.4097 71.54 17.6814 71.4466C17.9524 71.3516 18.2433 71.2891 18.5551 71.26C18.9686 71.22 19.2629 71.1783 19.4388 71.1333C19.6164 71.0866 19.7056 70.9866 19.7056 70.8333V70.8166C19.7056 70.6216 19.6439 70.47 19.5222 70.3633C19.3996 70.2566 19.2262 70.2033 19.002 70.2033C18.7635 70.2033 18.5751 70.255 18.4351 70.3566C18.295 70.4591 18.2025 70.5891 18.1583 70.7466L16.9411 70.65C17.032 70.2166 17.2563 69.8733 17.6147 69.62C17.9749 69.3666 18.4392 69.24 19.0086 69.24C19.3596 69.24 19.6889 69.2958 19.9957 69.4066C20.3025 69.5183 20.5501 69.6925 20.7393 69.93C20.9277 70.1658 21.0227 70.4716 21.0227 70.8466V74.0466H19.7723V73.39H19.7356C19.6197 73.61 19.4471 73.79 19.2187 73.93C18.9894 74.0675 18.6993 74.1366 18.3484 74.1366ZM18.7252 73.2266C19.0136 73.2266 19.2504 73.1433 19.4355 72.9766C19.6222 72.8083 19.7156 72.5991 19.7156 72.35V71.8466C19.6639 71.8825 19.5838 71.9133 19.4755 71.94C19.3663 71.9666 19.2504 71.99 19.1287 72.01C19.0061 72.03 18.8969 72.0466 18.8019 72.06C18.5701 72.0933 18.3834 72.1591 18.2417 72.2566C18.1016 72.3525 18.0316 72.4933 18.0316 72.68C18.0316 72.86 18.0966 72.9966 18.2283 73.09C18.3592 73.1816 18.5251 73.2266 18.7252 73.2266Z" fill="black"/>
<path d="M27.6913 69.3033V70.29H26.801V72.59C26.801 72.77 26.8418 72.8925 26.9244 72.9566C27.0061 73.0216 27.1128 73.0533 27.2445 73.0533C27.3062 73.0533 27.3679 73.0483 27.4279 73.0366C27.4896 73.0233 27.5379 73.015 27.5713 73.01L27.778 73.9866C27.713 74.0091 27.6213 74.0333 27.5013 74.06C27.3812 74.0883 27.2353 74.105 27.0644 74.11C26.5859 74.1316 26.2024 74.03 25.914 73.8033C25.6247 73.575 25.4813 73.2283 25.4838 72.7633V70.29H24.8336V69.3033H25.4838V68.1666H26.801V69.3033H27.6913Z" fill="black"/>
<path d="M34.1954 69.3033V70.29H33.305V72.59C33.305 72.77 33.3459 72.8925 33.4284 72.9566C33.5101 73.0216 33.6168 73.0533 33.7485 73.0533C33.8102 73.0533 33.8719 73.0483 33.9319 73.0366C33.9936 73.0233 34.042 73.015 34.0753 73.01L34.2821 73.9866C34.217 74.0091 34.1253 74.0333 34.0053 74.06C33.8852 74.0883 33.7394 74.105 33.5685 74.11C33.0899 74.1316 32.7065 74.03 32.418 73.8033C32.1287 73.575 31.9853 73.2283 31.9878 72.7633V70.29H31.3376V69.3033H31.9878V68.1666H33.305V69.3033H34.1954Z" fill="black"/>
<path d="M41.1329 70.9266V71.9699H38.2484V70.9266H41.1329Z" fill="black"/>
<path d="M46.8279 74.0466L45.0172 67.7233H46.4778L47.5249 72.1166H47.5782L48.7353 67.7233H49.9858L51.1363 72.1266H51.193L52.24 67.7233H53.7006L51.8932 74.0466H50.5894L49.3822 69.9099H49.3322L48.1318 74.0466H46.8279Z" fill="black"/>
<path d="M57.5174 74.0466V69.3033H58.8313V74.0466H57.5174ZM58.1777 68.69C57.9843 68.69 57.8175 68.6258 57.6775 68.4966C57.5374 68.3658 57.4674 68.2083 57.4674 68.0233C57.4674 67.8416 57.5374 67.6858 57.6775 67.5566C57.8175 67.4258 57.9843 67.36 58.1777 67.36C58.3728 67.36 58.5412 67.4258 58.6812 67.5566C58.8213 67.6858 58.8913 67.8416 58.8913 68.0233C58.8913 68.2083 58.8213 68.3658 58.6812 68.4966C58.5412 68.6258 58.3728 68.69 58.1777 68.69Z" fill="black"/>
<path d="M66.9562 70.6566L65.7491 70.73C65.7157 70.5766 65.6324 70.4458 65.499 70.3366C65.3656 70.2283 65.1838 70.1733 64.9554 70.1733C64.7503 70.1733 64.5769 70.2166 64.4352 70.3033C64.2952 70.3883 64.226 70.5016 64.2285 70.6433C64.226 70.7566 64.2702 70.8525 64.3619 70.93C64.4552 71.0083 64.612 71.0716 64.832 71.12L65.6924 71.2933C66.6036 71.48 67.0604 71.9083 67.0629 72.5766C67.0629 72.8883 66.9712 73.1616 66.7895 73.3966C66.6069 73.63 66.3568 73.8125 66.0392 73.9433C65.7232 74.0741 65.3597 74.14 64.9488 74.14C64.3218 74.14 63.8216 74.0091 63.4482 73.7466C63.0747 73.485 62.8579 73.1266 62.7979 72.6733L64.0918 72.6033C64.1318 72.7966 64.226 72.9433 64.3752 73.0433C64.5261 73.1416 64.7187 73.19 64.9521 73.19C65.183 73.19 65.3689 73.1458 65.509 73.0566C65.6507 72.9658 65.7232 72.85 65.7257 72.71C65.7191 72.475 65.5156 72.3166 65.1155 72.2366L64.2952 72.0733C63.3765 71.8916 62.9188 71.4391 62.9213 70.7166C62.9213 70.2616 63.1047 69.9016 63.4715 69.6366C63.8383 69.3725 64.326 69.24 64.9354 69.24C65.5331 69.24 66.0042 69.3666 66.3493 69.62C66.6961 69.8733 66.8978 70.2191 66.9562 70.6566Z" fill="black"/>
<path d="M73.1807 74.14C72.6938 74.14 72.2745 74.0416 71.9235 73.8433C71.5717 73.6433 71.3008 73.3616 71.1099 72.9966C70.9206 72.63 70.8264 72.1966 70.8264 71.6966C70.8264 71.2083 70.9206 70.78 71.1099 70.4133C71.3008 70.045 71.5684 69.7566 71.9135 69.55C72.2578 69.3433 72.6621 69.24 73.1273 69.24C73.545 69.24 73.9218 69.3291 74.2578 69.5066C74.5954 69.685 74.863 69.9525 75.0614 70.31C75.259 70.6658 75.3582 71.1125 75.3582 71.65V72.01H72.1269V72.0133C72.1269 72.3691 72.2236 72.6491 72.417 72.8533C72.6104 73.0558 72.8722 73.1566 73.204 73.1566C73.4241 73.1566 73.6142 73.1116 73.7742 73.02C73.9343 72.9266 74.0477 72.7891 74.1144 72.6066L75.3315 72.6866C75.2381 73.1291 75.0022 73.4825 74.6246 73.7466C74.2486 74.0091 73.7676 74.14 73.1807 74.14ZM72.1269 71.1966H74.121C74.1185 70.915 74.0277 70.6825 73.8476 70.5C73.6692 70.3158 73.4374 70.2233 73.1507 70.2233C72.8572 70.2233 72.6171 70.3183 72.4304 70.5066C72.2436 70.6958 72.1419 70.9258 72.1269 71.1966Z" fill="black"/>
</svg>
