<svg width="208" height="66" viewBox="0 0 208 66" fill="none" xmlns="http://www.w3.org/2000/svg">
<path d="M1 1L56.3152 65.4658" stroke="black" stroke-miterlimit="10"/>
<path d="M1 1L56.3152 65.4658" stroke="black" stroke-miterlimit="10"/>
<path d="M1 1L56.3152 65.4658" stroke="black" stroke-miterlimit="10"/>
<path d="M1 1L56.3152 65.4658" stroke="black" stroke-miterlimit="10"/>
<path d="M56.3152 1L1 65.4658" stroke="black" stroke-miterlimit="10"/>
<path d="M56.3152 1L1 65.4658" stroke="black" stroke-miterlimit="10"/>
<path d="M56.3152 1L1 65.4658" stroke="black" stroke-miterlimit="10"/>
<path d="M56.3152 1L1 65.4658" stroke="black" stroke-miterlimit="10"/>
<path d="M76.2064 1L131.541 65.4658" stroke="black" stroke-miterlimit="10"/>
<path d="M76.2064 1L131.541 65.4658" stroke="black" stroke-miterlimit="10"/>
<path d="M76.2064 1L131.541 65.4658" stroke="black" stroke-miterlimit="10"/>
<path d="M76.2064 1L131.541 65.4658" stroke="black" stroke-miterlimit="10"/>
<path d="M131.541 1L76.2064 65.4658" stroke="black" stroke-miterlimit="10"/>
<path d="M131.541 1L76.2064 65.4658" stroke="black" stroke-miterlimit="10"/>
<path d="M131.541 1L76.2064 65.4658" stroke="black" stroke-miterlimit="10"/>
<path d="M131.541 1L76.2064 65.4658" stroke="black" stroke-miterlimit="10"/>
<path d="M206.747 1L151.413 65.4658" stroke="black" stroke-miterlimit="10"/>
<path d="M206.747 1L151.413 65.4658" stroke="black" stroke-miterlimit="10"/>
<path d="M206.747 1L151.413 65.4658" stroke="black" stroke-miterlimit="10"/>
<path d="M206.747 1L151.413 65.4658" stroke="black" stroke-miterlimit="10"/>
</svg>
